<svg xmlns="http://www.w3.org/2000/svg" width="299.799" height="70.285" viewBox="0 0 299.799 70.285"><g fill-rule="evenodd" clip-rule="evenodd"><path fill="#231F20" d="M80.223 26.777h4.01c-1.033 3.024-2.436 5.227-4.207 6.605-1.297 1.02-2.82 1.718-4.578 2.112-1.765.394-4.255.59-7.468.59-4.305 0-7.43-.16-9.396-.475-1.957-.32-3.36-.88-4.193-1.7-1.83-1.84-1.91-5.35-.23-10.52 1.186-3.65 2.6-6.39 4.24-8.23 1.61-1.79 3.49-3 5.636-3.635 2.148-.637 5.43-.96 9.85-.96 3.984 0 6.88.21 8.69.62 1.81.41 3.053 1.127 3.73 2.157.477.733.718 1.593.736 2.56.01.966-.21 2.254-.67 3.866h-4.11c.703-2.336.436-3.885-.8-4.627-1.237-.744-4.135-1.11-8.7-1.11-4.475 0-7.55.457-9.22 1.36-1.11.6-2.07 1.558-2.91 2.874-.84 1.314-1.63 3.124-2.37 5.414-.703 2.167-1.003 3.867-.916 5.12.097 1.254.595 2.15 1.487 2.687 1.225.75 4.396 1.124 9.516 1.124 4.04 0 6.81-.364 8.32-1.107 1.502-.743 2.696-2.328 3.565-4.735zm34.705-16.2c3.912 0 6.765.115 8.548.358 1.786.233 3.105.662 3.947 1.297 1.27.94 1.972 2.282 2.107 4.02.137 1.735-.282 4.106-1.248 7.087-1.075 3.32-2.316 5.85-3.717 7.58-1.032 1.3-2.18 2.33-3.447 3.07-1.258.73-2.772 1.26-4.535 1.59-1.718.33-4.45.5-8.19.5-3.527 0-6.157-.12-7.878-.36-1.723-.235-3.046-.657-3.965-1.27-1.378-.89-2.143-2.2-2.296-3.94-.15-1.746.28-4.18 1.29-7.3 1.135-3.5 2.512-6.15 4.124-7.95 1.647-1.854 3.497-3.09 5.556-3.725 2.057-.627 5.294-.95 9.704-.968zm-.496 3.463c-2.604 0-4.596.098-5.99.287-1.39.197-2.558.546-3.508 1.047-1.125.6-2.1 1.54-2.936 2.82-.838 1.29-1.61 3.034-2.328 5.253-.815 2.516-1.15 4.404-.988 5.647.15 1.253.83 2.14 2.022 2.66 1.315.58 4.148.867 8.5.867 2.827 0 4.947-.1 6.357-.31 1.41-.21 2.6-.6 3.57-1.18 1.07-.61 1.99-1.53 2.76-2.75.78-1.22 1.52-2.94 2.24-5.16.85-2.62 1.18-4.543.97-5.76-.22-1.37-1.02-2.272-2.42-2.73-1.4-.456-4.15-.68-8.24-.68zm28.867-3.15h3.93l-1.22 3.75h.283c1.357-1.592 2.984-2.666 4.892-3.22 1.9-.564 4.9-.843 8.99-.843 3.57 0 6.145.197 7.745.592 1.59.39 2.713 1.1 3.353 2.13.506.812.718 1.842.622 3.08-.09 1.224-.52 3.004-1.27 5.33l-4.55 14.055h-3.93l4.01-12.38c.72-2.22 1.144-3.814 1.27-4.78.133-.968.022-1.79-.315-2.45-.423-.77-1.257-1.32-2.53-1.64-1.266-.324-3.263-.485-5.995-.485-3.04 0-5.486.224-7.33.67-1.835.44-3.353 1.173-4.54 2.185-.83.734-1.49 1.56-1.966 2.48-.488.912-1.1 2.542-1.86 4.886l-3.73 11.514h-3.93l8.06-24.885zm31.76 33.822l10.96-33.822h3.93l-1.034 3.194h.233c1.32-1.414 2.83-2.354 4.54-2.81 1.71-.465 4.513-.7 8.435-.7 3.373 0 5.865.126 7.496.37 1.624.24 2.885.688 3.777 1.332 1.386 1.002 2.117 2.362 2.194 4.09.08 1.684-.356 4-1.32 6.973-1.215 3.76-2.69 6.53-4.42 8.31-1.735 1.8-3.69 2.99-5.835 3.56-2.158.58-5.678.87-10.575.87-3.59 0-6.086-.23-7.5-.676-1.404-.438-2.355-1.315-2.85-2.604h-.232L179 44.71h-3.932zM201.9 14.04c-3.165 0-5.543.098-7.15.305-1.602.196-2.864.554-3.78 1.056-1.135.64-2.093 1.55-2.89 2.74-.8 1.2-1.54 2.85-2.22 4.94-.796 2.46-1.175 4.33-1.134 5.59.04 1.256.5 2.187 1.39 2.778 1.18.788 3.95 1.18 8.327 1.18 2.92 0 5.152-.1 6.694-.303 1.54-.2 2.775-.556 3.71-1.057 1.15-.638 2.124-1.56 2.925-2.77.804-1.215 1.556-2.897 2.253-5.046.785-2.426 1.164-4.26 1.122-5.486-.038-1.234-.506-2.15-1.396-2.74-1.14-.785-3.76-1.18-7.85-1.18zm49.03 14.052h4.117c-1.033 2.972-2.754 5.047-5.153 6.22-2.416 1.182-6.133 1.773-11.173 1.773-4.16 0-7.27-.16-9.32-.484-2.05-.32-3.504-.86-4.355-1.63-1.94-1.78-2.06-5.31-.355-10.57 1.194-3.69 2.63-6.45 4.292-8.31 1.58-1.76 3.437-2.96 5.545-3.58 2.114-.62 5.41-.93 9.885-.93 4.286 0 7.304.228 9.06.68 1.762.46 2.997 1.337 3.72 2.62.59 1.088.83 2.35.716 3.78-.114 1.43-.635 3.618-1.55 6.55h-27.71c-.9 3.1-.978 5.22-.233 6.377.5.78 1.536 1.317 3.087 1.61 1.562.29 4.2.43 7.924.43 2.814 0 4.92-.132 6.32-.39 1.39-.26 2.52-.744 3.4-1.44.66-.538 1.263-1.44 1.785-2.696zm2.168-7.24c.766-2.426.673-4.125-.295-5.084-.636-.644-1.663-1.09-3.09-1.35-1.43-.252-3.613-.377-6.53-.377-2.55 0-4.53.12-5.95.36-1.408.24-2.59.65-3.537 1.25-1.544.96-2.82 2.697-3.835 5.21h23.24zm39.88 5.925h4.012c-1.033 3.024-2.437 5.227-4.208 6.605-1.298 1.02-2.82 1.718-4.577 2.112-1.766.394-4.257.59-7.468.59-4.307 0-7.434-.16-9.398-.475-1.96-.32-3.36-.88-4.196-1.7-1.83-1.84-1.91-5.35-.236-10.52 1.18-3.65 2.596-6.39 4.237-8.23 1.61-1.79 3.485-3 5.634-3.635 2.15-.637 5.43-.96 9.853-.96 3.98 0 6.874.21 8.684.62 1.81.41 3.053 1.127 3.73 2.157.48.733.72 1.593.737 2.56.01.966-.21 2.254-.67 3.866h-4.11c.703-2.336.435-3.885-.8-4.627-1.237-.744-4.133-1.11-8.7-1.11-4.476 0-7.55.457-9.22 1.36-1.11.6-2.07 1.558-2.91 2.874s-1.627 3.124-2.37 5.414c-.7 2.167-1 3.867-.915 5.12.095 1.254.594 2.15 1.487 2.687 1.222.75 4.393 1.124 9.513 1.124 4.036 0 6.806-.364 8.315-1.107 1.504-.743 2.696-2.328 3.566-4.735z"/><g fill="#F48120"><circle cx="89.906" cy="23.813" r="2.132"/><circle cx="132.991" cy="23.813" r="2.132"/><circle cx="175.644" cy="23.813" r="2.132"/><circle cx="220.034" cy="23.813" r="2.132"/><circle cx="261.335" cy="23.813" r="2.132"/></g><path fill="#231F20" d="M14.488 56.64h.98c-.018.706-.267 1.2-.75 1.478-.48.283-1.32.422-2.52.422-.99 0-1.743-.038-2.257-.114-.51-.078-.9-.207-1.16-.39-.6-.425-.9-1.264-.9-2.516 0-.877.13-1.537.38-1.978a1.82 1.82 0 0 1 1.05-.852c.46-.146 1.22-.22 2.28-.22 1.02 0 1.76.052 2.21.16.458.11.82.318 1.09.625.224.258.38.558.463.9.083.34.128.86.136 1.56h-6.6c.025.735.17 1.24.437 1.516.18.19.466.32.86.39.393.07 1.03.106 1.918.106.67 0 1.16-.033 1.475-.094.313-.062.544-.177.7-.343.116-.13.19-.344.22-.64zm-.043-1.725c-.004-.578-.158-.982-.462-1.21-.2-.154-.48-.26-.84-.322-.36-.06-.887-.09-1.582-.09-.6 0-1.06.028-1.38.086-.32.05-.564.15-.744.29-.293.23-.464.64-.51 1.24h5.528zm16.775-2.37h.942v.78c.295-.36.592-.59.892-.695.3-.107.812-.16 1.536-.16.97 0 1.664.07 2.088.212.422.14.75.413.982.816a1.58 1.58 0 0 1 .887-.806c.4-.15 1.024-.223 1.872-.223.8 0 1.41.05 1.81.15.4.1.722.29.97.56.19.213.317.46.374.73.06.27.087.75.087 1.433v3.114h-.933v-3.33c0-.73-.11-1.2-.324-1.41-.293-.29-.96-.43-2-.43-.596 0-1.05.04-1.36.116-.314.08-.55.213-.714.4-.165.193-.276.447-.33.766-.06.316-.09.836-.09 1.554v2.334h-.936v-3.33c0-.42-.022-.73-.067-.93a.938.938 0 0 0-.255-.476c-.303-.29-.97-.438-2.01-.438-.598 0-1.06.04-1.38.12-.323.082-.572.22-.747.417-.15.17-.25.4-.297.698-.05.294-.07.83-.07 1.6v2.336h-.934v-5.92zm28.428 8.05v-8.05h.935v.76h.056c.2-.337.49-.56.86-.67.37-.11 1.02-.166 1.95-.166.8 0 1.402.03 1.81.08.404.06.74.162 1 .32.41.24.69.56.84.97.15.4.222.95.222 1.66 0 .892-.137 1.552-.413 1.98a1.94 1.94 0 0 1-1.113.85c-.47.14-1.286.204-2.45.204-.855 0-1.466-.054-1.837-.16a1.566 1.566 0 0 1-.88-.62h-.054v2.832h-.938zm4.025-7.3c-.754 0-1.313.022-1.68.07-.365.047-.638.134-.817.253-.222.15-.38.368-.477.65-.1.287-.15.68-.15 1.177 0 .585.05 1.028.16 1.328.1.3.29.52.54.662.34.187 1.03.28 2.07.28.694 0 1.218-.023 1.57-.072.35-.047.618-.13.8-.25.226-.152.386-.37.484-.66.097-.29.146-.69.146-1.2 0-.578-.05-1.015-.156-1.306a1.15 1.15 0 0 0-.544-.652c-.33-.188-.983-.28-1.956-.28zm19.435-.75h.935v.798h.062a1.54 1.54 0 0 1 .67-.63c.18-.092.415-.157.706-.19.3-.037.74-.053 1.32-.053.59 0 1.02.03 1.3.096.29.066.53.183.74.353.4.34.6.9.6 1.67v.61h-.962v-.42c0-.33-.02-.58-.064-.75a.862.862 0 0 0-.234-.415c-.236-.22-.73-.33-1.48-.33-1.128 0-1.85.146-2.17.44-.317.293-.477.96-.477 2v2.73h-.937v-5.92zm28.384 4.094h.98c-.017.7-.266 1.2-.748 1.47-.483.282-1.323.42-2.522.42-.99 0-1.742-.04-2.256-.114-.513-.078-.9-.207-1.163-.39-.6-.425-.898-1.263-.898-2.516 0-.877.127-1.537.382-1.98.24-.42.59-.702 1.043-.85.456-.146 1.216-.22 2.28-.22 1.022 0 1.756.05 2.21.16.454.11.816.318 1.087.625.223.26.38.56.462.9.08.34.12.86.13 1.56h-6.6c.024.734.17 1.24.436 1.515.18.187.466.315.86.385.393.07 1.032.104 1.92.104.67 0 1.16-.035 1.473-.096.31-.06.543-.175.7-.34.113-.13.187-.345.215-.64zm-.042-1.73c-.004-.58-.158-.98-.463-1.21-.2-.158-.48-.26-.84-.32s-.887-.09-1.582-.09c-.607 0-1.07.03-1.39.08-.317.055-.565.153-.745.296-.294.23-.464.64-.51 1.24h5.53zm16.612 1.48h1v.168c0 .32.034.55.102.686.068.14.205.243.41.32.27.096 1.047.143 2.334.143.803 0 1.36-.018 1.674-.054.315-.038.54-.105.678-.21.188-.14.28-.36.28-.655 0-.36-.11-.6-.335-.732-.226-.13-.635-.197-1.23-.19a194.12 194.12 0 0 1-2.702-.035 5.01 5.01 0 0 1-1.008-.1 1.573 1.573 0 0 1-.625-.28c-.318-.244-.476-.656-.476-1.24 0-.615.198-1.063.592-1.34.208-.145.55-.25 1.025-.315.48-.065 1.16-.098 2.05-.098.99 0 1.73.054 2.2.163.47.11.82.3 1.04.574a.963.963 0 0 1 .21.42c.037.147.05.396.05.746h-.985c-.005-.36-.063-.6-.182-.71-.126-.13-.375-.224-.747-.28-.37-.058-.91-.087-1.61-.087-1.28 0-2.06.09-2.335.27-.2.13-.3.356-.3.67 0 .327.118.54.35.644.233.102.705.147 1.41.137.7-.012 1.605.005 2.715.05.673.025 1.16.17 1.46.443.294.27.44.698.44 1.286 0 .355-.05.64-.153.86a1.27 1.27 0 0 1-.506.545c-.2.126-.535.214-.995.265-.463.054-1.132.08-2.004.08-.98 0-1.7-.03-2.174-.088-.472-.058-.817-.162-1.04-.313a1.233 1.233 0 0 1-.47-.54c-.09-.216-.135-.51-.135-.89l.003-.315zm24.235-2.077h-.973a2.973 2.973 0 0 1-.015-.257c0-.62.23-1.04.7-1.267.46-.225 1.33-.337 2.62-.337 1 0 1.73.044 2.17.135.44.09.78.264 1.03.525.21.206.342.45.405.734.06.283.092.777.092 1.484v3.12h-.93l.02-.69h-.05c-.234.323-.513.53-.84.626-.33.094-.944.14-1.85.14-1.038 0-1.758-.024-2.16-.074-.403-.05-.71-.152-.917-.313a1.184 1.184 0 0 1-.435-.538c-.08-.206-.12-.498-.12-.873 0-.457.063-.81.183-1.056.125-.248.33-.43.623-.55.317-.14 1.057-.21 2.218-.21 1.215 0 2.01.037 2.385.11.374.07.66.25.866.527h.08v-.637c0-.52-.09-.895-.28-1.12-.164-.207-.42-.344-.755-.417-.34-.072-.893-.108-1.66-.108-1.014 0-1.668.06-1.967.176-.296.12-.445.38-.445.78v.083zm2.396 1.44c-.77 0-1.31.013-1.616.04-.31.03-.527.08-.654.154-.245.146-.368.414-.368.803 0 .39.145.65.437.79.235.113 1.035.17 2.396.17.994 0 1.65-.066 1.97-.195.32-.13.48-.39.48-.785 0-.383-.176-.64-.534-.772-.362-.137-1.062-.2-2.11-.2zm26.273-3.22h.937v5.79c0 .55-.018.927-.055 1.133a1.308 1.308 0 0 1-.246.57 1.15 1.15 0 0 1-.554.416c-.225.076-.55.114-.987.114h-.14v-.86c.335-.01.556-.024.665-.05a.44.44 0 0 0 .265-.172.6.6 0 0 0 .105-.28c.014-.11.02-.34.02-.682V52.54zm0-2.597h.937v1.08h-.937v-1.08zm16.845 2.597h.94v3c0 .556.03.95.09 1.19.06.238.17.433.34.584.177.144.41.246.717.31.3.06.725.09 1.274.09.713 0 1.264-.055 1.658-.164.396-.108.69-.287.89-.537a1.3 1.3 0 0 0 .26-.564c.05-.225.07-.552.07-.98V52.54h.937v5.92h-.935v-.885h-.058a1.76 1.76 0 0 1-.95.766c-.392.13-1.053.2-1.976.2-.726 0-1.292-.042-1.704-.13-.414-.086-.734-.232-.967-.436-.215-.18-.364-.435-.448-.753-.088-.32-.13-.787-.13-1.397v-3.28zm4.1-3.113l.93.79-1.613 1.687-.64-.53 1.33-1.945zm18.98 3.114h.937v.892h.068c.2-.38.507-.636.917-.768.41-.135 1.1-.2 2.074-.2.85 0 1.48.046 1.89.14.41.093.73.26.964.51.185.192.313.436.385.73.07.293.107.716.107 1.27v3.345h-.937v-2.94c0-.53-.02-.908-.064-1.14a1.258 1.258 0 0 0-.266-.582c-.16-.186-.4-.315-.73-.393-.324-.076-.81-.113-1.46-.113-.726 0-1.29.053-1.694.16-.403.103-.708.28-.914.52a1.35 1.35 0 0 0-.28.59c-.043.216-.064.604-.064 1.162v2.74h-.937v-5.92zm23.25 0h.935v5.92h-.935v-5.92zm0-2.597h.935v1.11h-.935v-1.11zm20.402 2.525c.93 0 1.62.026 2.06.084.444.053.79.155 1.04.31a1.9 1.9 0 0 1 .814.953c.165.41.25.974.25 1.685 0 .79-.103 1.394-.303 1.805-.145.31-.337.558-.585.73-.243.177-.563.3-.954.38-.385.08-1.02.12-1.91.12-.84 0-1.476-.027-1.904-.085-.425-.056-.772-.157-1.04-.304a1.81 1.81 0 0 1-.848-.935c-.17-.415-.256-.995-.256-1.738 0-.833.127-1.464.37-1.892.25-.44.595-.732 1.036-.883.44-.15 1.187-.226 2.234-.23zm.15.823c-.62 0-1.087.02-1.4.065-.32.05-.57.13-.76.25-.22.145-.38.37-.48.673-.1.307-.15.722-.15 1.25 0 .598.066 1.048.2 1.344.135.3.36.51.687.63.357.14 1.055.21 2.09.21.673 0 1.17-.025 1.49-.074.316-.05.57-.14.76-.28.205-.143.353-.364.443-.653.087-.292.133-.7.133-1.23 0-.624-.067-1.08-.21-1.372-.158-.323-.42-.54-.79-.65-.37-.105-1.04-.16-2.014-.16zm19.79-.75h.935v.8h.063c.145-.27.367-.48.667-.634.18-.09.415-.153.706-.19.295-.033.73-.05 1.315-.05s1.018.03 1.3.097c.286.065.53.182.737.352.4.343.6.904.6 1.676v.61h-.96v-.42a3.31 3.31 0 0 0-.064-.747.88.88 0 0 0-.236-.417c-.236-.22-.73-.33-1.48-.33-1.127 0-1.852.147-2.17.44-.317.294-.477.96-.477 2v2.73h-.936v-5.92z"/><path fill="#F48120" d="M30.23 1.093a23.024 23.024 0 0 1 6.414 3.22c-15.137 13.912-13.136 26.296-1.542 38.76a23.183 23.183 0 0 1-5.5 2.404C9.954 32.07 8.9 15.384 30.23 1.093zM40.348 7.61c4.234 4.667 6.575 11.025 5.937 17.767-.573 6.05-3.443 11.345-7.664 15.106-10.1-10.41-10.02-22.1 1.73-32.873zm-17.18 38.773c-.713 0-1.434-.034-2.16-.102C8.293 45.08-1.098 33.73.105 21.01 1.245 8.973 11.472-.08 23.342 0 2.354 16.89 6.584 31.434 23.168 46.383z"/><path fill="#F48120" d="M0 68.333h298.555v1.95H0z"/></g></svg>