<svg id="Layer_4" xmlns="http://www.w3.org/2000/svg"  viewBox="95 151 1740.3 200"><style>.st0{fill:#757575;}</style>
  <g id="XMLID_261_">
    <path
       id="XMLID_259_"
       class="st0"
       d="M 127.3,151 95,151 187.3,311 203.5,283 127.3,151 Z"
       style="fill:#757575" />
    <path
       id="XMLID_258_"
       class="st0"
       d="m 215.9,242 -52.6,-91 -32.2,0 74.3,128.8 10.5,-18.2 c 1.7,-2.8 2.8,-6.2 2.8,-9.8 -0.1,-3.6 -1.1,-6.9 -2.8,-9.8 z"
       style="fill:#757575" />
    <path
       id="XMLID_257_"
       class="st0"
       d="m 151.3,255.1 -55.4,95.9 32.3,0 39.3,-68 -16.2,-27.9 z"
       style="fill:#757575" />
    <path
       id="XMLID_256_"
       class="st0"
       d="M 169.3,286.3 132,351 l 32.2,0 21.3,-36.8 -16.2,-27.9 z"
       style="fill:#757575" />
  </g>
  <g
     style="font-style:normal;font-weight:normal;font-size:40px;line-height:125%;font-family:sans-serif;letter-spacing:0px;word-spacing:0px;fill:#757575;fill-opacity:1;stroke:none;stroke-width:1px;stroke-linecap:butt;stroke-linejoin:miter;stroke-opacity:1"
     id="text3350">
    <path
       d="m 455.33959,246.06353 q 0,33.75 -20.025,53.775 -22.5,23.85 -59.175,23.85 -35.1,0 -59.4,-24.3 -24.3,-24.3 -24.3,-59.85 0,-35.55 24.3,-59.85 24.3,-24.3 59.4,-24.3 17.775,0 33.525,6.3 15.75,6.3 25.875,17.775 l -14.85,14.85 q -7.425,-9 -19.35,-13.95 -11.7,-5.175 -25.2,-5.175 -26.325,0 -44.55,18.225 -18,18.45 -18,46.125 0,27.675 18,46.125 18.225,18.225 44.55,18.225 24.075,0 40.05,-13.5 15.975,-13.5 18.45,-37.125 l -58.5,0 0,-19.35 78.075,0 q 1.125,6.3 1.125,12.15 z"
       style="font-style:normal;font-variant:normal;font-weight:normal;font-stretch:normal;font-size:225px;font-family:'Product Sans';-inkscape-font-specification:'Product Sans';fill:#757575;fill-opacity:1"
       id="path4169" />
    <path
       d="m 480.49037,320.08853 0,-161.1 49.275,0 q 36.9,0 59.175,22.275 22.5,22.275 22.5,58.275 0,36.225 -22.5,58.5 -22.275,22.05 -59.175,22.05 l -49.275,0 z m 20.7,-141.3 0,121.5 28.575,0 q 28.125,0 44.325,-15.975 16.2,-16.2 16.2,-44.775 0,-28.35 -16.2,-44.55 -16.2,-16.2 -44.325,-16.2 l -28.575,0 z"
       style="font-style:normal;font-variant:normal;font-weight:normal;font-stretch:normal;font-size:225px;font-family:'Product Sans';-inkscape-font-specification:'Product Sans';fill:#757575;fill-opacity:1"
       id="path4171" />
    <path
       d="m 791.08178,246.06353 q 0,33.75 -20.025,53.775 -22.5,23.85 -59.175,23.85 -35.1,0 -59.4,-24.3 -24.3,-24.3 -24.3,-59.85 0,-35.55 24.3,-59.85 24.3,-24.3 59.4,-24.3 17.775,0 33.525,6.3 15.75,6.3 25.875,17.775 l -14.85,14.85 q -7.425,-9 -19.35,-13.95 -11.7,-5.175 -25.2,-5.175 -26.325,0 -44.55,18.225 -18,18.45 -18,46.125 0,27.675 18,46.125 18.225,18.225 44.55,18.225 24.075,0 40.05,-13.5 15.975,-13.5 18.45,-37.125 l -58.5,0 0,-19.35 78.075,0 q 1.125,6.3 1.125,12.15 z"
       style="font-style:normal;font-variant:normal;font-weight:normal;font-stretch:normal;font-size:225px;font-family:'Product Sans';-inkscape-font-specification:'Product Sans';fill:#757575;fill-opacity:1"
       id="path4173" />
    <path
       d="m 937.32123,323.68853 q -35.775,0 -59.85,-24.075 -23.85,-24.075 -23.85,-60.075 0,-36 23.85,-59.85 23.85,-24.3 59.85,-24.3 36.45,0 59.175,26.325 l -14.85,14.4 q -17.325,-20.925 -44.325,-20.925 -26.775,0 -44.775,18 -17.775,17.775 -17.775,46.35 0,28.575 17.775,46.35 18,18 44.775,18 28.125,0 48.825,-23.625 l 15.07497,14.625 q -11.47497,13.725 -28.12497,21.375 -16.65,7.425 -35.775,7.425 z"
       style="font-style:normal;font-variant:normal;font-weight:normal;font-stretch:normal;font-size:225px;font-family:'Product Sans';-inkscape-font-specification:'Product Sans';fill:#757575;fill-opacity:1"
       id="path4175" />
    <path
       d="m 1032.4927,286.33853 q 0,8.1 6.75,13.5 6.975,5.4 16.2,5.4 13.05,0 23.175,-9.675 10.35,-9.675 10.35,-22.725 -9.675,-7.65 -27,-7.65 -12.6,0 -21.15,6.075 -8.325,6.075 -8.325,15.075 z m 26.775,-80.1 q 22.95,0 36.225,12.375 13.275,12.15 13.275,33.525 l 0,67.95 -19.8,0 0,-15.3 -0.9,0 q -12.825,18.9 -34.2,18.9 -18.225,0 -30.6,-10.8 -12.15,-10.8 -12.15,-27 0,-17.1 12.825,-27.225 13.05,-10.125 34.65,-10.125 18.45,0 30.375,6.75 l 0,-4.725 q 0,-10.8 -8.55,-18.225 -8.55,-7.65 -20.025,-7.65 -17.325,0 -27.45,14.625 l -18.225,-11.475 q 15.075,-21.6 44.55,-21.6 z"
       style="font-style:normal;font-variant:normal;font-weight:normal;font-stretch:normal;font-size:225px;font-family:'Product Sans';-inkscape-font-specification:'Product Sans';fill:#757575;fill-opacity:1"
       id="path4177" />
    <path
       d="m 1152.815,320.08853 -20.7,0 0,-110.25 19.8,0 0,15.3 0.9,0 q 4.725,-8.1 14.4,-13.5 9.9,-5.4 19.575,-5.4 12.15,0 21.375,5.625 9.225,5.625 13.5,15.525 13.725,-21.15 38.025,-21.15 19.125,0 29.475,11.7 10.35,11.7 10.35,33.3 l 0,68.85 -20.7,0 0,-65.7 q 0,-15.525 -5.625,-22.275 -5.625,-6.975 -18.9,-6.975 -11.925,0 -20.025,10.125 -8.1,10.125 -8.1,23.85 l 0,60.975 -20.7,0 0,-65.7 q 0,-15.525 -5.625,-22.275 -5.625,-6.975 -18.9,-6.975 -11.925,0 -20.025,10.125 -8.1,10.125 -8.1,23.85 l 0,60.975 z"
       style="font-style:normal;font-variant:normal;font-weight:normal;font-stretch:normal;font-size:225px;font-family:'Product Sans';-inkscape-font-specification:'Product Sans';fill:#757575;fill-opacity:1"
       id="path4179" />
    <path
       d="m 1377.7165,304.78853 q 14.85,0 24.975,-11.25 10.125,-11.025 10.125,-28.575 0,-17.325 -10.125,-28.575 -10.125,-11.25 -24.975,-11.25 -15.075,0 -25.2,11.25 -9.9,11.25 -9.9,28.575 0,17.55 9.9,28.8 10.125,11.025 25.2,11.025 z m 3.375,18.9 q -12.15,0 -22.275,-5.175 -9.9,-5.175 -15.3,-13.725 l -0.9,0 0.9,15.3 0,48.6 -20.7,0 0,-158.85 19.8,0 0,15.3 0.9,0 q 5.4,-8.55 15.3,-13.725 10.125,-5.175 22.275,-5.175 21.825,0 36.9,17.1 15.525,17.325 15.525,41.625 0,24.525 -15.525,41.625 -15.075,17.1 -36.9,17.1 z"
       style="font-style:normal;font-variant:normal;font-weight:normal;font-stretch:normal;font-size:225px;font-family:'Product Sans';-inkscape-font-specification:'Product Sans';fill:#757575;fill-opacity:1"
       id="path4181" />
    <path
       d="m 1477.933,171.81353 q 0,6.075 -4.275,10.35 -4.275,4.275 -10.35,4.275 -6.075,0 -10.35,-4.275 -4.275,-4.275 -4.275,-10.35 0,-6.075 4.275,-10.35 4.275,-4.275 10.35,-4.275 6.075,0 10.35,4.275 4.275,4.275 4.275,10.35 z m -4.275,38.025 0,110.25 -20.7,0 0,-110.25 20.7,0 z"
       style="font-style:normal;font-variant:normal;font-weight:normal;font-stretch:normal;font-size:225px;font-family:'Product Sans';-inkscape-font-specification:'Product Sans';fill:#757575;fill-opacity:1"
       id="path4183" />
    <path
       d="m 1500.8162,209.83853 19.8,0 0,15.3 0.9,0 q 4.725,-8.1 14.4,-13.5 9.9,-5.4 20.475,-5.4 20.25,0 31.05,11.7 11.025,11.475 11.025,32.85 l 0,69.3 -20.7,0 0,-67.95 q -0.675,-27 -27.225,-27 -12.375,0 -20.7,10.125 -8.325,9.9 -8.325,23.85 l 0,60.975 -20.7,0 0,-110.25 z"
       style="font-style:normal;font-variant:normal;font-weight:normal;font-stretch:normal;font-size:225px;font-family:'Product Sans';-inkscape-font-specification:'Product Sans';fill:#757575;fill-opacity:1"
       id="path4185" />
    <path
       d="m 1636.7408,286.33853 q 0,8.1 6.75,13.5 6.975,5.4 16.2,5.4 13.05,0 23.175,-9.675 10.35,-9.675 10.35,-22.725 -9.675,-7.65 -27,-7.65 -12.6,0 -21.15,6.075 -8.325,6.075 -8.325,15.075 z m 26.775,-80.1 q 22.95,0 36.225,12.375 13.275,12.15 13.275,33.525 l 0,67.95 -19.8,0 0,-15.3 -0.9,0 q -12.825,18.9 -34.2,18.9 -18.225,0 -30.6,-10.8 -12.15,-10.8 -12.15,-27 0,-17.1 12.825,-27.225 13.05,-10.125 34.65,-10.125 18.45,0 30.375,6.75 l 0,-4.725 q 0,-10.8 -8.55,-18.225 -8.55,-7.65 -20.025,-7.65 -17.325,0 -27.45,14.625 l -18.225,-11.475 q 15.075,-21.6 44.55,-21.6 z"
       style="font-style:normal;font-variant:normal;font-weight:normal;font-stretch:normal;font-size:225px;font-family:'Product Sans';-inkscape-font-specification:'Product Sans';fill:#757575;fill-opacity:1"
       id="path4187" />
    <path
       d="m 1819.4197,289.48853 q 0,14.4 -12.6,24.3 -12.6,9.9 -31.725,9.9 -16.65,0 -29.25,-8.55 -12.6,-8.775 -18,-22.95 l 18.45,-7.875 q 4.05,9.9 11.7,15.525 7.875,5.4 17.1,5.4 9.9,0 16.425,-4.275 6.75,-4.275 6.75,-10.125 0,-10.575 -16.2,-15.525 l -18.9,-4.725 q -32.175,-8.1 -32.175,-31.05 0,-15.075 12.15,-24.075 12.375,-9.225 31.5,-9.225 14.625,0 26.325,6.975 11.925,6.975 16.65,18.675 l -18.45,7.65 q -3.15,-6.975 -10.35,-10.8 -6.975,-4.05 -15.75,-4.05 -8.1,0 -14.625,4.05 -6.3,4.05 -6.3,9.9 0,9.45 17.775,13.5 l 16.65,4.275 q 32.85,8.1 32.85,33.075 z"
       style="font-style:normal;font-variant:normal;font-weight:normal;font-stretch:normal;font-size:225px;font-family:'Product Sans';-inkscape-font-specification:'Product Sans';fill:#757575;fill-opacity:1"
       id="path4189" />
  </g>
</svg>
